<svg width="36" height="35" viewBox="0 0 36 35" fill="none" xmlns="http://www.w3.org/2000/svg">
<path d="M10 0.110802C4.5844 1.19392 0 10.1108 0 10.1108C0 10.1108 6.19141 9.24735 10 10.1108C17.1986 11.7428 17.6964 20.068 25 19C32.8861 17.8468 35.5 4.1108 35.5 4.1108C35.5 4.1108 29.705 9.70167 25 10.1108C17.9862 10.7207 16.9036 -1.26991 10 0.110802Z" fill="#A3F5FB"/>
<path d="M10 15.1108C4.5844 16.1939 0 25.1108 0 25.1108C0 25.1108 6.19141 24.2473 10 25.1108C17.1986 26.7428 17.6964 35.068 25 34C32.8861 32.8468 35.5 19.1108 35.5 19.1108C35.5 19.1108 29.705 24.7017 25 25.1108C17.9862 25.7207 16.9036 13.7301 10 15.1108Z" fill="#A3F5FB"/>
</svg>
